<svg width="437" height="110" viewBox="0 0 437 110" fill="none" xmlns="http://www.w3.org/2000/svg">
<path d="M0 44.8717V-6.10352e-05H24.9781C31.4341 -6.10352e-05 36.1982 1.11105 39.2704 3.33328C42.3425 5.51276 43.8786 8.31191 43.8786 11.7307C43.8786 13.9957 43.2107 16.0256 41.875 17.8205C40.5838 19.5726 38.6915 20.9615 36.1982 21.9871C33.7048 23.0128 30.6327 23.5256 26.9817 23.5256L28.3174 20.064C31.9684 20.064 35.1073 20.5555 37.7343 21.5384C40.4057 22.5213 42.4538 23.9529 43.8786 25.8333C45.3479 27.6709 46.0826 29.8931 46.0826 32.4999C46.0826 36.3888 44.3906 39.423 41.0068 41.6025C37.6675 43.782 32.7698 44.8717 26.3138 44.8717H0ZM15.4944 34.2948H24.9781C26.7145 34.2948 28.0057 33.9957 28.8517 33.3974C29.7422 32.7991 30.1874 31.923 30.1874 30.7692C30.1874 29.6153 29.7422 28.7393 28.8517 28.141C28.0057 27.5427 26.7145 27.2435 24.9781 27.2435H14.4258V17.2435H22.8409C24.6219 17.2435 25.9131 16.9658 26.7145 16.4102C27.5605 15.8119 27.9835 14.9786 27.9835 13.9102C27.9835 12.7991 27.5605 11.9658 26.7145 11.4102C25.9131 10.8546 24.6219 10.5769 22.8409 10.5769H15.4944V34.2948Z" fill="#F9F9F9"/>
<path d="M46.5793 44.8717L67.0159 -6.10352e-05H82.5103L102.947 44.8717H86.6511L71.5574 7.17943H77.7017L62.608 44.8717H46.5793ZM58.7344 37.0512L62.7416 26.1538H84.2468L88.2539 37.0512H58.7344Z" fill="#F9F9F9"/>
<path d="M105.462 44.8717V-6.10352e-05H127.969C132.333 -6.10352e-05 136.095 0.6837 139.256 2.05122C142.462 3.41874 144.933 5.38455 146.67 7.94866C148.406 10.47 149.274 13.4615 149.274 16.923C149.274 20.3846 148.406 23.376 146.67 25.8974C144.933 28.376 142.462 30.2777 139.256 31.6025C136.095 32.9273 132.333 33.5897 127.969 33.5897H114.211L121.224 27.3717V44.8717H105.462ZM133.446 44.8717L121.959 28.5256H138.655L150.276 44.8717H133.446ZM121.224 29.0384L114.211 22.1794H126.968C129.149 22.1794 130.752 21.7093 131.776 20.7692C132.845 19.829 133.379 18.5469 133.379 16.923C133.379 15.2991 132.845 14.017 131.776 13.0769C130.752 12.1367 129.149 11.6666 126.968 11.6666H114.211L121.224 4.80763V29.0384Z" fill="#F9F9F9"/>
<path d="M155.226 44.8717V-6.10352e-05H180.204C186.66 -6.10352e-05 191.424 1.11105 194.496 3.33328C197.569 5.51276 199.105 8.31191 199.105 11.7307C199.105 13.9957 198.437 16.0256 197.101 17.8205C195.81 19.5726 193.918 20.9615 191.424 21.9871C188.931 23.0128 185.859 23.5256 182.208 23.5256L183.543 20.064C187.194 20.064 190.333 20.5555 192.96 21.5384C195.632 22.5213 197.68 23.9529 199.105 25.8333C200.574 27.6709 201.309 29.8931 201.309 32.4999C201.309 36.3888 199.617 39.423 196.233 41.6025C192.893 43.782 187.996 44.8717 181.54 44.8717H155.226ZM170.72 34.2948H180.204C181.941 34.2948 183.232 33.9957 184.078 33.3974C184.968 32.7991 185.413 31.923 185.413 30.7692C185.413 29.6153 184.968 28.7393 184.078 28.141C183.232 27.5427 181.941 27.2435 180.204 27.2435H169.652V17.2435H178.067C179.848 17.2435 181.139 16.9658 181.941 16.4102C182.786 15.8119 183.209 14.9786 183.209 13.9102C183.209 12.7991 182.786 11.9658 181.941 11.4102C181.139 10.8546 179.848 10.5769 178.067 10.5769H170.72V34.2948Z" fill="#F9F9F9"/>
<path d="M221.307 16.6666H242.144V27.564H221.307V16.6666ZM222.375 33.4615H245.751V44.8717H206.881V-6.10352e-05H244.882V11.4102H222.375V33.4615Z" fill="#F9F9F9"/>
<path d="M251.818 44.8717V-6.10352e-05H274.325C278.689 -6.10352e-05 282.451 0.6837 285.612 2.05122C288.818 3.41874 291.289 5.38455 293.025 7.94866C294.762 10.47 295.63 13.4615 295.63 16.923C295.63 20.3846 294.762 23.376 293.025 25.8974C291.289 28.376 288.818 30.2777 285.612 31.6025C282.451 32.9273 278.689 33.5897 274.325 33.5897H260.567L267.58 27.3717V44.8717H251.818ZM279.802 44.8717L268.315 28.5256H285.011L296.632 44.8717H279.802ZM267.58 29.0384L260.567 22.1794H273.323C275.505 22.1794 277.108 21.7093 278.132 20.7692C279.201 19.829 279.735 18.5469 279.735 16.923C279.735 15.2991 279.201 14.017 278.132 13.0769C277.108 12.1367 275.505 11.6666 273.323 11.6666H260.567L267.58 4.80763V29.0384Z" fill="#F9F9F9"/>
<path d="M0 108.974V64.1025H22.507C26.8704 64.1025 30.6327 64.7863 33.7939 66.1538C36.9996 67.5213 39.4707 69.4871 41.2072 72.0512C42.9436 74.5726 43.8118 77.564 43.8118 81.0256C43.8118 84.4871 42.9436 87.4786 41.2072 89.9999C39.4707 92.5213 36.9996 94.4871 33.7939 95.8974C30.6327 97.2649 26.8704 97.9487 22.507 97.9487H8.74901L15.7616 91.4743V108.974H0ZM15.7616 93.141L8.74901 86.282H21.5052C23.6869 86.282 25.2898 85.8119 26.3138 84.8717C27.3824 83.9316 27.9167 82.6495 27.9167 81.0256C27.9167 79.4016 27.3824 78.1196 26.3138 77.1794C25.2898 76.2393 23.6869 75.7692 21.5052 75.7692H8.74901L15.7616 68.9102V93.141Z" fill="#F9F9F9"/>
<path d="M74.1438 110C70.3592 110 66.8418 109.423 63.5915 108.269C60.3858 107.115 57.603 105.491 55.2432 103.397C52.8835 101.261 51.0357 98.7606 49.7 95.8974C48.4088 93.0341 47.7632 89.9145 47.7632 86.5384C47.7632 83.1196 48.4088 79.9999 49.7 77.1794C51.0357 74.3162 52.8835 71.8375 55.2432 69.7435C57.603 67.6068 60.3858 65.9615 63.5915 64.8076C66.8418 63.6538 70.3592 63.0769 74.1438 63.0769C77.9728 63.0769 81.4902 63.6538 84.696 64.8076C87.9017 65.9615 90.6845 67.6068 93.0443 69.7435C95.4041 71.8375 97.2296 74.3162 98.5208 77.1794C99.8565 79.9999 100.524 83.1196 100.524 86.5384C100.524 89.9145 99.8565 93.0341 98.5208 95.8974C97.2296 98.7606 95.4041 101.261 93.0443 103.397C90.6845 105.491 87.9017 107.115 84.696 108.269C81.4902 109.423 77.9728 110 74.1438 110ZM74.1438 97.7564C75.6131 97.7564 76.971 97.4999 78.2177 96.9871C79.5089 96.4743 80.622 95.7478 81.557 94.8076C82.5366 93.8247 83.2935 92.6495 83.8278 91.282C84.3621 89.8717 84.6292 88.2905 84.6292 86.5384C84.6292 84.7863 84.3621 83.2264 83.8278 81.8589C83.2935 80.4487 82.5366 79.2734 81.557 78.3333C80.622 77.3504 79.5089 76.6025 78.2177 76.0897C76.971 75.5769 75.6131 75.3204 74.1438 75.3204C72.6745 75.3204 71.2942 75.5769 70.003 76.0897C68.7563 76.6025 67.6432 77.3504 66.6637 78.3333C65.7287 79.2734 64.994 80.4487 64.4597 81.8589C63.9255 83.2264 63.6583 84.7863 63.6583 86.5384C63.6583 88.2905 63.9255 89.8717 64.4597 91.282C64.994 92.6495 65.7287 93.8247 66.6637 94.8076C67.6432 95.7478 68.7563 96.4743 70.003 96.9871C71.2942 97.4999 72.6745 97.7564 74.1438 97.7564Z" fill="#F9F9F9"/>
<path d="M104.249 108.974V99.6794L130.296 70.5769L132.233 75.8333H104.917V64.1025H146.124V73.3974L120.078 102.5L118.141 97.2435H147.193V108.974H104.249Z" fill="#F9F9F9"/>
<path d="M151.769 108.974V64.1025H164.726L188.502 91.4102H182.491V64.1025H197.852V108.974H184.895L161.119 81.6666H167.13V108.974H151.769Z" fill="#F9F9F9"/>
<path d="M200.37 108.974L220.807 64.1025H236.301L256.738 108.974H240.442L225.348 71.282H231.493L216.399 108.974H200.37ZM212.526 101.154L216.533 90.2563H238.038L242.045 101.154H212.526Z" fill="#F9F9F9"/>
<path d="M259.253 108.974V64.1025H272.21L295.986 91.4102H289.975V64.1025H305.336V108.974H292.379L268.604 81.6666H274.614V108.974H259.253Z" fill="#F9F9F9"/>
<path d="M332.953 108.974V64.1025H345.91L369.686 91.4102H363.675V64.1025H379.036V108.974H366.079L342.303 81.6666H348.314V108.974H332.953ZM383.711 96.6666V88.3333H408.155V96.6666H383.711ZM396 85.1281C393.328 85.1281 390.968 84.6794 388.92 83.782C386.872 82.8418 385.269 81.5598 384.112 79.9358C382.954 78.2692 382.375 76.3888 382.375 74.2948C382.375 72.1581 382.954 70.2777 384.112 68.6538C385.269 67.0299 386.872 65.7692 388.92 64.8717C390.968 63.9316 393.306 63.4615 395.933 63.4615C398.604 63.4615 400.942 63.9316 402.945 64.8717C404.993 65.7692 406.596 67.0299 407.754 68.6538C408.912 70.2777 409.49 72.1581 409.49 74.2948C409.49 76.3888 408.912 78.2692 407.754 79.9358C406.596 81.5598 404.993 82.8418 402.945 83.782C400.942 84.6794 398.626 85.1281 396 85.1281ZM395.933 78.0769C396.912 78.0769 397.736 77.7563 398.404 77.1153C399.072 76.4743 399.406 75.5341 399.406 74.2948C399.406 73.0128 399.072 72.0726 398.404 71.4743C397.736 70.8333 396.912 70.5128 395.933 70.5128C394.953 70.5128 394.129 70.8333 393.462 71.4743C392.794 72.0726 392.46 73.0128 392.46 74.2948C392.46 75.5341 392.794 76.4743 393.462 77.1153C394.129 77.7563 394.953 78.0769 395.933 78.0769Z" fill="#F9F9F9"/>
<path d="M421.238 108.974V69.3589L427.984 75.5128H413.224V64.1025H437V108.974H421.238Z" fill="#F9F9F9"/>
</svg>
