<svg width="104" height="28" viewBox="0 0 104 28" fill="none" xmlns="http://www.w3.org/2000/svg">
<path d="M0 11.472V0.271999H5.94444C7.48088 0.271999 8.61467 0.549333 9.3458 1.104C10.0769 1.648 10.4425 2.34667 10.4425 3.2C10.4425 3.76533 10.2836 4.272 9.96568 4.72C9.65839 5.15733 9.20805 5.504 8.61467 5.76C8.02129 6.016 7.29015 6.144 6.42127 6.144L6.73915 5.28C7.60804 5.28 8.35506 5.40267 8.98024 5.648C9.61601 5.89333 10.1034 6.25067 10.4425 6.72C10.7922 7.17867 10.967 7.73333 10.967 8.384C10.967 9.35467 10.5644 10.112 9.75905 10.656C8.96434 11.2 7.79877 11.472 6.26232 11.472H0ZM3.68746 8.832H5.94444C6.35769 8.832 6.66498 8.75733 6.8663 8.608C7.07823 8.45867 7.18419 8.24 7.18419 7.952C7.18419 7.664 7.07823 7.44533 6.8663 7.296C6.66498 7.14667 6.35769 7.072 5.94444 7.072H3.43315V4.576H5.43582C5.85967 4.576 6.16696 4.50667 6.35769 4.368C6.55902 4.21867 6.65968 4.01067 6.65968 3.744C6.65968 3.46667 6.55902 3.25867 6.35769 3.12C6.16696 2.98133 5.85967 2.912 5.43582 2.912H3.68746V8.832Z" fill="#F9F9F9"/>
<path d="M11.0852 11.472L15.9489 0.271999H19.6363L24.5 11.472H20.6218L17.0297 2.064H18.4919L14.8998 11.472H11.0852ZM13.978 9.52L14.9316 6.8H20.0496L21.0032 9.52H13.978Z" fill="#F9F9F9"/>
<path d="M25.0986 11.472V0.271999H30.4549C31.4934 0.271999 32.3887 0.442666 33.1411 0.783999C33.904 1.12533 34.4921 1.616 34.9053 2.256C35.3186 2.88533 35.5252 3.632 35.5252 4.496C35.5252 5.36 35.3186 6.10667 34.9053 6.736C34.4921 7.35467 33.904 7.82933 33.1411 8.16C32.3887 8.49067 31.4934 8.656 30.4549 8.656H27.1807L28.8496 7.104V11.472H25.0986ZM31.7583 11.472L29.0245 7.392H32.998L35.7636 11.472H31.7583ZM28.8496 7.52L27.1807 5.808H30.2165C30.7357 5.808 31.1172 5.69067 31.3609 5.456C31.6152 5.22133 31.7424 4.90133 31.7424 4.496C31.7424 4.09067 31.6152 3.77067 31.3609 3.536C31.1172 3.30133 30.7357 3.184 30.2165 3.184H27.1807L28.8496 1.472V7.52Z" fill="#F9F9F9"/>
<path d="M36.9417 11.472V0.271999H42.8861C44.4225 0.271999 45.5563 0.549333 46.2875 1.104C47.0186 1.648 47.3842 2.34667 47.3842 3.2C47.3842 3.76533 47.2252 4.272 46.9073 4.72C46.6 5.15733 46.1497 5.504 45.5563 5.76C44.9629 6.016 44.2318 6.144 43.3629 6.144L43.6808 5.28C44.5497 5.28 45.2967 5.40267 45.9219 5.648C46.5577 5.89333 47.0451 6.25067 47.3842 6.72C47.7338 7.17867 47.9087 7.73333 47.9087 8.384C47.9087 9.35467 47.506 10.112 46.7007 10.656C45.906 11.2 44.7404 11.472 43.204 11.472H36.9417ZM40.6291 8.832H42.8861C43.2993 8.832 43.6066 8.75733 43.808 8.608C44.0199 8.45867 44.1258 8.24 44.1258 7.952C44.1258 7.664 44.0199 7.44533 43.808 7.296C43.6066 7.14667 43.2993 7.072 42.8861 7.072H40.3748V4.576H42.3775C42.8013 4.576 43.1086 4.50667 43.2993 4.368C43.5007 4.21867 43.6013 4.01067 43.6013 3.744C43.6013 3.46667 43.5007 3.25867 43.2993 3.12C43.1086 2.98133 42.8013 2.912 42.3775 2.912H40.6291V8.832Z" fill="#F9F9F9"/>
<path d="M52.668 4.432H57.627V7.152H52.668V4.432ZM52.9223 8.624H58.4853V11.472H49.2348V0.271999H58.2787V3.12H52.9223V8.624Z" fill="#F9F9F9"/>
<path d="M59.9293 11.472V0.271999H65.2856C66.3241 0.271999 67.2194 0.442666 67.9718 0.783999C68.7347 1.12533 69.3228 1.616 69.736 2.256C70.1493 2.88533 70.3559 3.632 70.3559 4.496C70.3559 5.36 70.1493 6.10667 69.736 6.736C69.3228 7.35467 68.7347 7.82933 67.9718 8.16C67.2194 8.49067 66.3241 8.656 65.2856 8.656H62.0114L63.6803 7.104V11.472H59.9293ZM66.589 11.472L63.8552 7.392H67.8287L70.5943 11.472H66.589ZM63.6803 7.52L62.0114 5.808H65.0472C65.5664 5.808 65.9479 5.69067 66.1916 5.456C66.4459 5.22133 66.5731 4.90133 66.5731 4.496C66.5731 4.09067 66.4459 3.77067 66.1916 3.536C65.9479 3.30133 65.5664 3.184 65.0472 3.184H62.0114L63.6803 1.472V7.52Z" fill="#F9F9F9"/>
<path d="M0 27.472V16.272H5.35635C6.39478 16.272 7.29015 16.4427 8.04248 16.784C8.8054 17.1253 9.39349 17.616 9.80674 18.256C10.22 18.8853 10.4266 19.632 10.4266 20.496C10.4266 21.36 10.22 22.1067 9.80674 22.736C9.39349 23.3653 8.8054 23.856 8.04248 24.208C7.29015 24.5493 6.39478 24.72 5.35635 24.72H2.08214L3.75104 23.104V27.472H0ZM3.75104 23.52L2.08214 21.808H5.11794C5.63715 21.808 6.01861 21.6907 6.26232 21.456C6.51663 21.2213 6.64379 20.9013 6.64379 20.496C6.64379 20.0907 6.51663 19.7707 6.26232 19.536C6.01861 19.3013 5.63715 19.184 5.11794 19.184H2.08214L3.75104 17.472V23.52Z" fill="#F9F9F9"/>
<path d="M17.6452 27.728C16.7445 27.728 15.9074 27.584 15.1339 27.296C14.371 27.008 13.7087 26.6027 13.1471 26.08C12.5855 25.5467 12.1458 24.9227 11.8279 24.208C11.5206 23.4933 11.367 22.7147 11.367 21.872C11.367 21.0187 11.5206 20.24 11.8279 19.536C12.1458 18.8213 12.5855 18.2027 13.1471 17.68C13.7087 17.1467 14.371 16.736 15.1339 16.448C15.9074 16.16 16.7445 16.016 17.6452 16.016C18.5565 16.016 19.3936 16.16 20.1565 16.448C20.9194 16.736 21.5817 17.1467 22.1433 17.68C22.7049 18.2027 23.1393 18.8213 23.4466 19.536C23.7645 20.24 23.9234 21.0187 23.9234 21.872C23.9234 22.7147 23.7645 23.4933 23.4466 24.208C23.1393 24.9227 22.7049 25.5467 22.1433 26.08C21.5817 26.6027 20.9194 27.008 20.1565 27.296C19.3936 27.584 18.5565 27.728 17.6452 27.728ZM17.6452 24.672C17.9949 24.672 18.3181 24.608 18.6147 24.48C18.922 24.352 19.1869 24.1707 19.4095 23.936C19.6426 23.6907 19.8227 23.3973 19.9499 23.056C20.077 22.704 20.1406 22.3093 20.1406 21.872C20.1406 21.4347 20.077 21.0453 19.9499 20.704C19.8227 20.352 19.6426 20.0587 19.4095 19.824C19.1869 19.5787 18.922 19.392 18.6147 19.264C18.3181 19.136 17.9949 19.072 17.6452 19.072C17.2955 19.072 16.967 19.136 16.6598 19.264C16.3631 19.392 16.0982 19.5787 15.865 19.824C15.6425 20.0587 15.4677 20.352 15.3405 20.704C15.2134 21.0453 15.1498 21.4347 15.1498 21.872C15.1498 22.3093 15.2134 22.704 15.3405 23.056C15.4677 23.3973 15.6425 23.6907 15.865 23.936C16.0982 24.1707 16.3631 24.352 16.6598 24.48C16.967 24.608 17.2955 24.672 17.6452 24.672Z" fill="#F9F9F9"/>
<path d="M24.8099 27.472V25.152L31.0086 17.888L31.4696 19.2H24.9688V16.272H34.7756V18.592L28.5768 25.856L28.1159 24.544H35.0299V27.472H24.8099Z" fill="#F9F9F9"/>
<path d="M36.119 27.472V16.272H39.2025L44.8608 23.088H43.4303V16.272H47.086V27.472H44.0025L38.3442 20.656H39.7747V27.472H36.119Z" fill="#F9F9F9"/>
<path d="M47.6854 27.472L52.549 16.272H56.2365L61.1001 27.472H57.2219L53.6298 18.064H55.0921L51.5 27.472H47.6854ZM50.5781 25.52L51.5318 22.8H56.6497L57.6034 25.52H50.5781Z" fill="#F9F9F9"/>
<path d="M61.6988 27.472V16.272H64.7822L70.4406 23.088H69.0101V16.272H72.6658V27.472H69.5823L63.924 20.656H65.3544V27.472H61.6988Z" fill="#F9F9F9"/>
<path d="M79.2383 27.472V16.272H82.3218L87.9801 23.088H86.5496V16.272H90.2053V27.472H87.1218L81.4635 20.656H82.894V27.472H79.2383ZM91.3179 24.4V22.32H97.1352V24.4H91.3179ZM94.2424 21.52C93.6067 21.52 93.0451 21.408 92.5576 21.184C92.0702 20.9493 91.6888 20.6293 91.4133 20.224C91.1378 19.808 91 19.3387 91 18.816C91 18.2827 91.1378 17.8133 91.4133 17.408C91.6888 17.0027 92.0702 16.688 92.5576 16.464C93.0451 16.2293 93.6014 16.112 94.2265 16.112C94.8623 16.112 95.4186 16.2293 95.8954 16.464C96.3829 16.688 96.7643 17.0027 97.0398 17.408C97.3153 17.8133 97.4531 18.2827 97.4531 18.816C97.4531 19.3387 97.3153 19.808 97.0398 20.224C96.7643 20.6293 96.3829 20.9493 95.8954 21.184C95.4186 21.408 94.8676 21.52 94.2424 21.52ZM94.2265 19.76C94.4597 19.76 94.6557 19.68 94.8146 19.52C94.9736 19.36 95.053 19.1253 95.053 18.816C95.053 18.496 94.9736 18.2613 94.8146 18.112C94.6557 17.952 94.4597 17.872 94.2265 17.872C93.9934 17.872 93.7974 17.952 93.6385 18.112C93.4795 18.2613 93.4 18.496 93.4 18.816C93.4 19.1253 93.4795 19.36 93.6385 19.52C93.7974 19.68 93.9934 19.76 94.2265 19.76Z" fill="#F9F9F9"/>
<path d="M100.249 27.472V17.584L101.854 19.12H98.3417V16.272H104V27.472H100.249Z" fill="#F9F9F9"/>
</svg>
