<svg xmlns="http://www.w3.org/2000/svg" version="1.1" xmlns:xlink="http://www.w3.org/1999/xlink" width="1000" height="1000"><g clip-path="url(#SvgjsClipPath1334)"><rect width="1000" height="1000" fill="#0b0a0a"></rect><g transform="matrix(7.6923076923076925,0,0,7.6923076923076925,100,392.3076923076923)"><svg xmlns="http://www.w3.org/2000/svg" version="1.1" xmlns:xlink="http://www.w3.org/1999/xlink" width="104" height="28"><svg width="104" height="28" viewBox="0 0 104 28" fill="none" xmlns="http://www.w3.org/2000/svg">
<path d="M0 11.472V0.271973H5.94444C7.48088 0.271973 8.61467 0.549306 9.3458 1.10397C10.0769 1.64797 10.4425 2.34664 10.4425 3.19997C10.4425 3.76531 10.2836 4.27197 9.96568 4.71997C9.65839 5.15731 9.20805 5.50397 8.61467 5.75997C8.02129 6.01597 7.29015 6.14397 6.42127 6.14397L6.73915 5.27997C7.60804 5.27997 8.35506 5.40264 8.98024 5.64797C9.61601 5.89331 10.1034 6.25064 10.4425 6.71997C10.7922 7.17864 10.967 7.73331 10.967 8.38397C10.967 9.35464 10.5644 10.112 9.75905 10.656C8.96434 11.2 7.79877 11.472 6.26232 11.472H0ZM3.68746 8.83197H5.94444C6.35769 8.83197 6.66498 8.75731 6.8663 8.60797C7.07823 8.45864 7.18419 8.23997 7.18419 7.95197C7.18419 7.66397 7.07823 7.44531 6.8663 7.29597C6.66498 7.14664 6.35769 7.07197 5.94444 7.07197H3.43315V4.57597H5.43582C5.85967 4.57597 6.16696 4.50664 6.35769 4.36797C6.55902 4.21864 6.65968 4.01064 6.65968 3.74397C6.65968 3.46664 6.55902 3.25864 6.35769 3.11997C6.16696 2.98131 5.85967 2.91197 5.43582 2.91197H3.68746V8.83197Z" fill="#F9F9F9"></path>
<path d="M11.0852 11.472L15.9489 0.271973H19.6363L24.5 11.472H20.6218L17.0297 2.06397H18.4919L14.8998 11.472H11.0852ZM13.978 9.51997L14.9316 6.79997H20.0496L21.0032 9.51997H13.978Z" fill="#F9F9F9"></path>
<path d="M25.0986 11.472V0.271973H30.4549C31.4934 0.271973 32.3887 0.442639 33.1411 0.783973C33.904 1.12531 34.4921 1.61597 34.9053 2.25597C35.3186 2.88531 35.5252 3.63197 35.5252 4.49597C35.5252 5.35997 35.3186 6.10664 34.9053 6.73597C34.4921 7.35464 33.904 7.82931 33.1411 8.15997C32.3887 8.49064 31.4934 8.65597 30.4549 8.65597H27.1807L28.8496 7.10397V11.472H25.0986ZM31.7583 11.472L29.0245 7.39197H32.998L35.7636 11.472H31.7583ZM28.8496 7.51997L27.1807 5.80797H30.2165C30.7357 5.80797 31.1172 5.69064 31.3609 5.45597C31.6152 5.22131 31.7424 4.90131 31.7424 4.49597C31.7424 4.09064 31.6152 3.77064 31.3609 3.53597C31.1172 3.30131 30.7357 3.18397 30.2165 3.18397H27.1807L28.8496 1.47197V7.51997Z" fill="#F9F9F9"></path>
<path d="M36.9417 11.472V0.271973H42.8861C44.4225 0.271973 45.5563 0.549306 46.2875 1.10397C47.0186 1.64797 47.3842 2.34664 47.3842 3.19997C47.3842 3.76531 47.2252 4.27197 46.9073 4.71997C46.6 5.15731 46.1497 5.50397 45.5563 5.75997C44.9629 6.01597 44.2318 6.14397 43.3629 6.14397L43.6808 5.27997C44.5497 5.27997 45.2967 5.40264 45.9219 5.64797C46.5577 5.89331 47.0451 6.25064 47.3842 6.71997C47.7338 7.17864 47.9087 7.73331 47.9087 8.38397C47.9087 9.35464 47.506 10.112 46.7007 10.656C45.906 11.2 44.7404 11.472 43.204 11.472H36.9417ZM40.6291 8.83197H42.8861C43.2993 8.83197 43.6066 8.75731 43.808 8.60797C44.0199 8.45864 44.1258 8.23997 44.1258 7.95197C44.1258 7.66397 44.0199 7.44531 43.808 7.29597C43.6066 7.14664 43.2993 7.07197 42.8861 7.07197H40.3748V4.57597H42.3775C42.8013 4.57597 43.1086 4.50664 43.2993 4.36797C43.5007 4.21864 43.6013 4.01064 43.6013 3.74397C43.6013 3.46664 43.5007 3.25864 43.2993 3.11997C43.1086 2.98131 42.8013 2.91197 42.3775 2.91197H40.6291V8.83197Z" fill="#F9F9F9"></path>
<path d="M52.668 4.43197H57.627V7.15197H52.668V4.43197ZM52.9223 8.62397H58.4853V11.472H49.2348V0.271973H58.2787V3.11997H52.9223V8.62397Z" fill="#F9F9F9"></path>
<path d="M59.9293 11.472V0.271973H65.2856C66.3241 0.271973 67.2194 0.442639 67.9718 0.783973C68.7347 1.12531 69.3228 1.61597 69.736 2.25597C70.1493 2.88531 70.3559 3.63197 70.3559 4.49597C70.3559 5.35997 70.1493 6.10664 69.736 6.73597C69.3228 7.35464 68.7347 7.82931 67.9718 8.15997C67.2194 8.49064 66.3241 8.65597 65.2856 8.65597H62.0114L63.6803 7.10397V11.472H59.9293ZM66.589 11.472L63.8552 7.39197H67.8287L70.5943 11.472H66.589ZM63.6803 7.51997L62.0114 5.80797H65.0472C65.5664 5.80797 65.9479 5.69064 66.1916 5.45597C66.4459 5.22131 66.5731 4.90131 66.5731 4.49597C66.5731 4.09064 66.4459 3.77064 66.1916 3.53597C65.9479 3.30131 65.5664 3.18397 65.0472 3.18397H62.0114L63.6803 1.47197V7.51997Z" fill="#F9F9F9"></path>
<path d="M0 27.472V16.272H5.35635C6.39478 16.272 7.29015 16.4426 8.04248 16.784C8.8054 17.1253 9.39349 17.616 9.80674 18.256C10.22 18.8853 10.4266 19.632 10.4266 20.496C10.4266 21.36 10.22 22.1066 9.80674 22.736C9.39349 23.3653 8.8054 23.856 8.04248 24.208C7.29015 24.5493 6.39478 24.72 5.35635 24.72H2.08214L3.75104 23.104V27.472H0ZM3.75104 23.52L2.08214 21.808H5.11794C5.63715 21.808 6.01861 21.6906 6.26232 21.456C6.51663 21.2213 6.64379 20.9013 6.64379 20.496C6.64379 20.0906 6.51663 19.7706 6.26232 19.536C6.01861 19.3013 5.63715 19.184 5.11794 19.184H2.08214L3.75104 17.472V23.52Z" fill="#F9F9F9"></path>
<path d="M17.6452 27.728C16.7445 27.728 15.9074 27.584 15.1339 27.296C14.371 27.008 13.7087 26.6026 13.1471 26.08C12.5855 25.5466 12.1458 24.9226 11.8279 24.208C11.5206 23.4933 11.367 22.7146 11.367 21.872C11.367 21.0186 11.5206 20.24 11.8279 19.536C12.1458 18.8213 12.5855 18.2026 13.1471 17.68C13.7087 17.1466 14.371 16.736 15.1339 16.448C15.9074 16.16 16.7445 16.016 17.6452 16.016C18.5565 16.016 19.3936 16.16 20.1565 16.448C20.9194 16.736 21.5817 17.1466 22.1433 17.68C22.7049 18.2026 23.1393 18.8213 23.4466 19.536C23.7645 20.24 23.9234 21.0186 23.9234 21.872C23.9234 22.7146 23.7645 23.4933 23.4466 24.208C23.1393 24.9226 22.7049 25.5466 22.1433 26.08C21.5817 26.6026 20.9194 27.008 20.1565 27.296C19.3936 27.584 18.5565 27.728 17.6452 27.728ZM17.6452 24.672C17.9949 24.672 18.3181 24.608 18.6147 24.48C18.922 24.352 19.1869 24.1706 19.4095 23.936C19.6426 23.6906 19.8227 23.3973 19.9499 23.056C20.077 22.704 20.1406 22.3093 20.1406 21.872C20.1406 21.4346 20.077 21.0453 19.9499 20.704C19.8227 20.352 19.6426 20.0586 19.4095 19.824C19.1869 19.5786 18.922 19.392 18.6147 19.264C18.3181 19.136 17.9949 19.072 17.6452 19.072C17.2955 19.072 16.967 19.136 16.6598 19.264C16.3631 19.392 16.0982 19.5786 15.865 19.824C15.6425 20.0586 15.4677 20.352 15.3405 20.704C15.2134 21.0453 15.1498 21.4346 15.1498 21.872C15.1498 22.3093 15.2134 22.704 15.3405 23.056C15.4677 23.3973 15.6425 23.6906 15.865 23.936C16.0982 24.1706 16.3631 24.352 16.6598 24.48C16.967 24.608 17.2955 24.672 17.6452 24.672Z" fill="#F9F9F9"></path>
<path d="M24.8099 27.472V25.152L31.0086 17.888L31.4696 19.2H24.9688V16.272H34.7756V18.592L28.5768 25.856L28.1159 24.544H35.0299V27.472H24.8099Z" fill="#F9F9F9"></path>
<path d="M36.119 27.472V16.272H39.2025L44.8608 23.088H43.4303V16.272H47.086V27.472H44.0025L38.3442 20.656H39.7747V27.472H36.119Z" fill="#F9F9F9"></path>
<path d="M47.6854 27.472L52.549 16.272H56.2365L61.1001 27.472H57.2219L53.6298 18.064H55.0921L51.5 27.472H47.6854ZM50.5781 25.52L51.5318 22.8H56.6497L57.6034 25.52H50.5781Z" fill="#F9F9F9"></path>
<path d="M61.6988 27.472V16.272H64.7822L70.4406 23.088H69.0101V16.272H72.6658V27.472H69.5823L63.924 20.656H65.3544V27.472H61.6988Z" fill="#F9F9F9"></path>
<path d="M79.2383 27.472V16.272H82.3218L87.9801 23.088H86.5496V16.272H90.2053V27.472H87.1218L81.4635 20.656H82.894V27.472H79.2383ZM91.3179 24.4V22.32H97.1352V24.4H91.3179ZM94.2424 21.52C93.6067 21.52 93.0451 21.408 92.5576 21.184C92.0702 20.9493 91.6888 20.6293 91.4133 20.224C91.1378 19.808 91 19.3386 91 18.816C91 18.2826 91.1378 17.8133 91.4133 17.408C91.6888 17.0026 92.0702 16.688 92.5576 16.464C93.0451 16.2293 93.6014 16.112 94.2265 16.112C94.8623 16.112 95.4186 16.2293 95.8954 16.464C96.3829 16.688 96.7643 17.0026 97.0398 17.408C97.3153 17.8133 97.4531 18.2826 97.4531 18.816C97.4531 19.3386 97.3153 19.808 97.0398 20.224C96.7643 20.6293 96.3829 20.9493 95.8954 21.184C95.4186 21.408 94.8676 21.52 94.2424 21.52ZM94.2265 19.76C94.4597 19.76 94.6557 19.68 94.8146 19.52C94.9736 19.36 95.053 19.1253 95.053 18.816C95.053 18.496 94.9736 18.2613 94.8146 18.112C94.6557 17.952 94.4597 17.872 94.2265 17.872C93.9934 17.872 93.7974 17.952 93.6385 18.112C93.4795 18.2613 93.4 18.496 93.4 18.816C93.4 19.1253 93.4795 19.36 93.6385 19.52C93.7974 19.68 93.9934 19.76 94.2265 19.76Z" fill="#F9F9F9"></path>
<path d="M100.249 27.472V17.584L101.854 19.12H98.3417V16.272H104V27.472H100.249Z" fill="#F9F9F9"></path>
</svg></svg></g></g><defs><clipPath id="SvgjsClipPath1334"><rect width="1000" height="1000" x="0" y="0" rx="500" ry="500"></rect></clipPath></defs></svg>