<svg width="48" height="48" viewBox="0 0 48 48" fill="none" xmlns="http://www.w3.org/2000/svg">
<path d="M8 12C8 11.4696 8.21071 10.9609 8.58579 10.5858C8.96086 10.2107 9.46957 10 10 10H38C38.5304 10 39.0391 10.2107 39.4142 10.5858C39.7893 10.9609 40 11.4696 40 12C40 12.5304 39.7893 13.0391 39.4142 13.4142C39.0391 13.7893 38.5304 14 38 14H10C9.46957 14 8.96086 13.7893 8.58579 13.4142C8.21071 13.0391 8 12.5304 8 12ZM8 24C8 23.4696 8.21071 22.9609 8.58579 22.5858C8.96086 22.2107 9.46957 22 10 22H38C38.5304 22 39.0391 22.2107 39.4142 22.5858C39.7893 22.9609 40 23.4696 40 24C40 24.5304 39.7893 25.0391 39.4142 25.4142C39.0391 25.7893 38.5304 26 38 26H10C9.46957 26 8.96086 25.7893 8.58579 25.4142C8.21071 25.0391 8 24.5304 8 24ZM10 34C9.46957 34 8.96086 34.2107 8.58579 34.5858C8.21071 34.9609 8 35.4696 8 36C8 36.5304 8.21071 37.0391 8.58579 37.4142C8.96086 37.7893 9.46957 38 10 38H38C38.5304 38 39.0391 37.7893 39.4142 37.4142C39.7893 37.0391 40 36.5304 40 36C40 35.4696 39.7893 34.9609 39.4142 34.5858C39.0391 34.2107 38.5304 34 38 34H10Z" fill="#F9F9F9"/>
</svg>
