<svg width="24" height="24" viewBox="0 0 24 24" fill="none" xmlns="http://www.w3.org/2000/svg">
<g clip-path="url(#clip0_239_235)">
<path d="M16.0001 12C16.0001 11.0747 15.6792 10.1779 15.0921 9.46258C14.505 8.74725 13.6881 8.2576 12.7805 8.07706C11.8729 7.89652 10.9308 8.03625 10.1146 8.47244C9.29849 8.90864 8.65884 9.61432 8.30466 10.4692C7.95048 11.3242 7.90368 12.2755 8.17224 13.161C8.44079 14.0466 9.00809 14.8116 9.77747 15.3258C10.5468 15.84 11.4707 16.0716 12.3917 15.981C13.3126 15.8904 14.1736 15.4833 14.8281 14.829C15.1997 14.4701 15.495 14.0398 15.6964 13.564C15.8978 13.0882 16.0011 12.5767 16.0001 12.06L15.9991 11.997L16.0001 12ZM18.1601 12C18.1553 13.4185 17.6591 14.7915 16.756 15.8853C15.8529 16.9791 14.5987 17.7262 13.2068 17.9994C11.8149 18.2726 10.3713 18.0551 9.12173 17.3838C7.87217 16.7125 6.89382 15.6289 6.3532 14.3175C5.81257 13.0061 5.74308 11.5479 6.15653 10.191C6.56999 8.83418 7.44084 7.6625 8.6209 6.87541C9.80096 6.08833 11.2173 5.73447 12.6289 5.87406C14.0405 6.01365 15.3601 6.63807 16.3631 7.64105C16.9328 8.19369 17.3855 8.85526 17.6944 9.5864C18.0033 10.3175 18.162 11.1033 18.1611 11.897L18.1601 12.006V12ZM19.8471 5.59405V5.59605C19.8472 5.9292 19.7318 6.25209 19.5205 6.50969C19.3092 6.76729 19.0152 6.94367 18.6884 7.00876C18.3617 7.07385 18.0225 7.02364 17.7286 6.86668C17.4348 6.70971 17.2044 6.45571 17.0769 6.14795C16.9493 5.84019 16.9324 5.49771 17.029 5.17887C17.1256 4.86003 17.3298 4.58456 17.6068 4.3994C17.8837 4.21424 18.2163 4.13084 18.5479 4.16341C18.8795 4.19599 19.1895 4.34252 19.4251 4.57805C19.6811 4.82905 19.8401 5.17905 19.8401 5.56605V5.59505L19.8471 5.59405ZM12.0071 2.15405L10.8121 2.14605C10.0881 2.14071 9.53843 2.14071 9.16309 2.14605C8.78776 2.15138 8.28509 2.16705 7.65509 2.19305C7.07009 2.21305 6.51509 2.27105 5.97209 2.36305L6.04509 2.35305C5.62009 2.42305 5.24309 2.52305 4.88209 2.65605L4.92509 2.64205C4.41519 2.84721 3.95148 3.15232 3.56129 3.53942C3.1711 3.92653 2.8623 4.38779 2.65309 4.89605L2.64309 4.92305C2.51488 5.27441 2.4198 5.63698 2.35909 6.00605L2.35409 6.04305C2.26587 6.5686 2.21275 7.09944 2.19509 7.63205L2.19409 7.65305C2.16809 8.28371 2.15243 8.78638 2.14709 9.16105C2.14176 9.53571 2.14176 10.0854 2.14709 10.81C2.15243 11.5347 2.15509 11.933 2.15509 12.005C2.15509 12.077 2.15243 12.4754 2.14709 13.2C2.14176 13.9247 2.14176 14.4744 2.14709 14.849C2.15243 15.2237 2.16809 15.7264 2.19409 16.357C2.21409 16.942 2.27209 17.497 2.36409 18.04L2.35409 17.967C2.42409 18.392 2.52409 18.769 2.65709 19.13L2.64309 19.087C2.84825 19.597 3.15337 20.0607 3.54047 20.4509C3.92757 20.841 4.38883 21.1498 4.89709 21.359L4.92409 21.369C5.24209 21.488 5.61909 21.588 6.00709 21.653L6.04409 21.658C6.51309 21.74 7.06809 21.798 7.63209 21.817L7.65309 21.818C8.28376 21.844 8.78643 21.8597 9.16109 21.865C9.53576 21.8704 10.0854 21.8704 10.8101 21.865L11.9981 21.841L13.1931 21.849C13.9171 21.8544 14.4668 21.8544 14.8421 21.849C15.2174 21.8437 15.7201 21.828 16.3501 21.802C16.9351 21.782 17.4901 21.724 18.0331 21.632L17.9601 21.642C18.3851 21.572 18.7621 21.472 19.1231 21.339L19.0801 21.353C19.59 21.1479 20.0537 20.8428 20.4439 20.4557C20.8341 20.0686 21.1429 19.6073 21.3521 19.099L21.3621 19.072C21.4811 18.754 21.5811 18.377 21.6461 17.989L21.6511 17.952C21.7331 17.483 21.7911 16.928 21.8101 16.364L21.8111 16.343C21.8371 15.7124 21.8528 15.2097 21.8581 14.835C21.8634 14.4604 21.8634 13.9107 21.8581 13.186C21.8528 12.4614 21.8501 12.063 21.8501 11.991C21.8501 11.919 21.8528 11.5207 21.8581 10.796C21.8634 10.0714 21.8634 9.52171 21.8581 9.14705C21.8528 8.77238 21.8371 8.26971 21.8111 7.63905C21.7911 7.05405 21.7331 6.49905 21.6411 5.95605L21.6511 6.02905C21.5874 5.63261 21.4859 5.24317 21.3481 4.86605L21.3621 4.90905C21.1569 4.39914 20.8518 3.93544 20.4647 3.54524C20.0776 3.15505 19.6164 2.84626 19.1081 2.63705L19.0811 2.62705C18.7297 2.49883 18.3672 2.40375 17.9981 2.34305L17.9611 2.33805C17.4359 2.24987 16.9054 2.19675 16.3731 2.17905L16.3521 2.17805C15.7214 2.15205 15.2188 2.13638 14.8441 2.13105C14.4694 2.12571 13.9198 2.12571 13.1951 2.13105L12.0071 2.15405ZM24.0001 12C24.0001 14.3854 23.9734 16.0364 23.9201 16.953C23.9674 17.882 23.8189 18.8106 23.4844 19.6785C23.1498 20.5465 22.6367 21.3344 21.9781 21.9914C21.3196 22.6483 20.5304 23.1596 19.6616 23.492C18.7929 23.8244 17.864 23.9706 16.9351 23.921L16.9511 23.922C16.0344 23.9754 14.3834 24.002 11.9981 24.002C9.61276 24.002 7.96176 23.9754 7.04509 23.922C6.11611 23.9693 5.18756 23.8209 4.31962 23.4863C3.45168 23.1518 2.6637 22.6386 2.00677 21.9801C1.34983 21.3216 0.838585 20.5323 0.506164 19.6636C0.173743 18.7948 0.0275616 17.8659 0.0770938 16.937L0.0760937 16.953C0.0227604 16.0364 -0.00390625 14.3854 -0.00390625 12C-0.00390625 9.61471 0.0227604 7.96371 0.0760937 7.04705C0.0288252 6.11806 0.177269 5.18952 0.511807 4.32157C0.846344 3.45363 1.35951 2.66566 2.01805 2.00872C2.67659 1.35178 3.46581 0.840539 4.33457 0.508117C5.20332 0.175696 6.13223 0.0295148 7.06109 0.0790469L7.04509 0.0780469C7.96176 0.0247135 9.61276 -0.00195312 11.9981 -0.00195312C14.3834 -0.00195312 16.0344 0.0247135 16.9511 0.0780469C17.8801 0.0307783 18.8086 0.179222 19.6766 0.51376C20.5445 0.848297 21.3325 1.36146 21.9894 2.02C22.6464 2.67854 23.1576 3.46776 23.49 4.33652C23.8224 5.20528 23.9686 6.13418 23.9191 7.06305L23.9201 7.04705C23.9734 7.96305 24.0001 9.61405 24.0001 12Z" fill="#FCFDFF"/>
</g>
<defs>
<clipPath id="clip0_239_235">
<rect width="24" height="24" fill="white"/>
</clipPath>
</defs>
</svg>
