<svg width="32" height="32" viewBox="0 0 32 32" fill="none" xmlns="http://www.w3.org/2000/svg">
<g clip-path="url(#clip0_310_1333)">
<path d="M21.3333 16C21.3333 14.7661 20.9054 13.5705 20.1226 12.6167C19.3399 11.6629 18.2506 11.0101 17.0405 10.7693C15.8304 10.5286 14.5742 10.7149 13.486 11.2965C12.3978 11.8781 11.545 12.819 11.0727 13.9589C10.6005 15.0988 10.5381 16.3672 10.8962 17.5479C11.2542 18.7287 12.0106 19.7488 13.0365 20.4344C14.0623 21.12 15.2941 21.4287 16.522 21.3079C17.75 21.1871 18.898 20.6443 19.7706 19.772C20.2661 19.2934 20.6598 18.7197 20.9284 18.0853C21.1969 17.4509 21.3346 16.7689 21.3333 16.08L21.332 15.996L21.3333 16ZM24.2133 16C24.2069 17.8913 23.5453 19.7219 22.3412 21.1803C21.1371 22.6387 19.4647 23.6349 17.6089 23.9991C15.753 24.3634 13.8282 24.0733 12.1621 23.1783C10.4961 22.2832 9.1916 20.8385 8.47077 19.09C7.74994 17.3414 7.65727 15.3971 8.20854 13.588C8.75982 11.7788 9.92096 10.2166 11.4944 9.16714C13.0678 8.11769 14.9562 7.64588 16.8383 7.832C18.7205 8.01813 20.4799 8.85068 21.8173 10.188C22.5769 10.9248 23.1806 11.8069 23.5924 12.7818C24.0042 13.7566 24.2158 14.8044 24.2146 15.8626L24.2133 16.008V16ZM26.4626 7.45865V7.46131C26.4628 7.90552 26.3089 8.33604 26.0272 8.67951C25.7455 9.02298 25.3534 9.25814 24.9178 9.34493C24.4821 9.43172 24.0299 9.36477 23.638 9.15549C23.2462 8.9462 22.9391 8.60753 22.769 8.19718C22.5989 7.78683 22.5763 7.33019 22.7052 6.90508C22.834 6.47996 23.1062 6.11267 23.4755 5.86579C23.8448 5.6189 24.2883 5.5077 24.7304 5.55114C25.1724 5.59457 25.5858 5.78995 25.9 6.10398C26.2413 6.43865 26.4533 6.90531 26.4533 7.42131V7.45998L26.4626 7.45865ZM16.0093 2.87198L14.416 2.86131C13.4506 2.8542 12.7177 2.8542 12.2173 2.86131C11.7169 2.86843 11.0466 2.88931 10.2066 2.92398C9.42663 2.95065 8.68663 3.02798 7.96263 3.15065L8.05996 3.13731C7.4933 3.23065 6.99063 3.36398 6.5093 3.54131L6.56663 3.52265C5.88675 3.7962 5.26848 4.20302 4.74822 4.71915C4.22797 5.23529 3.81624 5.8503 3.5373 6.52798L3.52396 6.56398C3.35301 7.03246 3.22623 7.5159 3.1453 8.00798L3.13863 8.05731C3.021 8.75805 2.95017 9.46583 2.92663 10.176L2.9253 10.204C2.89063 11.0449 2.86974 11.7151 2.86263 12.2146C2.85552 12.7142 2.85552 13.4471 2.86263 14.4133C2.86974 15.3795 2.8733 15.9106 2.8733 16.0066C2.8733 16.1026 2.86974 16.6338 2.86263 17.6C2.85552 18.5662 2.85552 19.2991 2.86263 19.7986C2.86974 20.2982 2.89063 20.9684 2.9253 21.8093C2.95196 22.5893 3.0293 23.3293 3.15196 24.0533L3.13863 23.956C3.23196 24.5226 3.3653 25.0253 3.54263 25.5066L3.52396 25.4493C3.79751 26.1292 4.20433 26.7475 4.72046 27.2677C5.2366 27.788 5.85162 28.1997 6.5293 28.4786L6.5653 28.492C6.9893 28.6506 7.49196 28.784 8.0093 28.8706L8.05863 28.8773C8.68396 28.9867 9.42396 29.064 10.176 29.0893L10.204 29.0907C11.0449 29.1253 11.7151 29.1462 12.2146 29.1533C12.7142 29.1604 13.4471 29.1604 14.4133 29.1533L15.9973 29.1213L17.5906 29.132C18.556 29.1391 19.2889 29.1391 19.7893 29.132C20.2897 29.1249 20.96 29.104 21.8 29.0693C22.58 29.0427 23.32 28.9653 24.044 28.8426L23.9466 28.856C24.5133 28.7626 25.016 28.6293 25.4973 28.452L25.44 28.4706C26.1198 28.1971 26.7381 27.7903 27.2584 27.2741C27.7786 26.758 28.1903 26.143 28.4693 25.4653L28.4826 25.4293C28.6413 25.0053 28.7746 24.5026 28.8613 23.9853L28.868 23.936C28.9773 23.3106 29.0546 22.5707 29.08 21.8186L29.0813 21.7906C29.116 20.9498 29.1369 20.2795 29.144 19.78C29.1511 19.2804 29.1511 18.5475 29.144 17.5813C29.1369 16.6151 29.1333 16.084 29.1333 15.988C29.1333 15.892 29.1369 15.3609 29.144 14.3946C29.1511 13.4284 29.1511 12.6955 29.144 12.196C29.1369 11.6964 29.116 11.0262 29.0813 10.1853C29.0546 9.40531 28.9773 8.66531 28.8546 7.94131L28.868 8.03865C28.783 7.51007 28.6477 6.99082 28.464 6.48798L28.4826 6.54531C28.2091 5.86544 27.8023 5.24717 27.2861 4.72691C26.77 4.20665 26.155 3.79493 25.4773 3.51598L25.4413 3.50265C24.9728 3.33169 24.4894 3.20492 23.9973 3.12398L23.948 3.11731C23.2477 2.99974 22.5403 2.92892 21.8306 2.90531L21.8026 2.90398C20.9617 2.86931 20.2915 2.84843 19.792 2.84131C19.2924 2.8342 18.5595 2.8342 17.5933 2.84131L16.0093 2.87198ZM32 16C32 19.1804 31.9644 21.3818 31.8933 22.604C31.9563 23.8426 31.7584 25.0807 31.3123 26.2379C30.8663 27.3952 30.1821 28.4458 29.304 29.3218C28.426 30.1977 27.3737 30.8793 26.2153 31.3226C25.057 31.7658 23.8184 31.9607 22.58 31.8946L22.6013 31.896C21.3791 31.9671 19.1777 32.0027 15.9973 32.0027C12.8169 32.0027 10.6155 31.9671 9.3933 31.896C8.15465 31.959 6.91659 31.7611 5.75933 31.315C4.60207 30.869 3.55144 30.1848 2.67553 29.3067C1.79961 28.4287 1.11795 27.3764 0.674723 26.218C0.231494 25.0597 0.0365861 23.8211 0.102629 22.5826L0.101296 22.604C0.0301845 21.3818 -0.00537109 19.1804 -0.00537109 16C-0.00537109 12.8195 0.0301845 10.6182 0.101296 9.39598C0.0382708 8.15734 0.236196 6.91927 0.682246 5.76202C1.1283 4.60476 1.81252 3.55413 2.69057 2.67821C3.56862 1.8023 4.62092 1.12064 5.77926 0.677408C6.9376 0.23418 8.17614 0.0392716 9.41463 0.105314L9.3933 0.103981C10.6155 0.03287 12.8169 -0.00268555 15.9973 -0.00268555C19.1777 -0.00268555 21.3791 0.03287 22.6013 0.103981C23.8399 0.0409564 25.078 0.238882 26.2353 0.684932C27.3925 1.13098 28.4431 1.8152 29.3191 2.69326C30.195 3.57131 30.8766 4.6236 31.3199 5.78194C31.7631 6.94029 31.958 8.17883 31.892 9.41731L31.8933 9.39598C31.9644 10.6173 32 12.8186 32 16Z" fill="#FCFDFF"/>
</g>
<defs>
<clipPath id="clip0_310_1333">
<rect width="32" height="32" fill="white"/>
</clipPath>
</defs>
</svg>
